<svg width="283" height="336" viewBox="0 0 283 336" fill="none" xmlns="http://www.w3.org/2000/svg">
<path fill-rule="evenodd" clip-rule="evenodd" d="M48.7597 293.943C13.4893 256.164 15.5075 200.354 27.4059 152.328C29.3924 144.31 30.3108 135.612 35.648 129.338C40.985 123.07 50.9574 120.124 57.4511 125.059C62.8371 129.152 63.9665 136.679 66.0924 143.158C68.9164 151.778 74.2079 159.539 81.1577 165.256C85.7227 169.013 91.7254 171.993 97.3876 170.268C105.151 167.9 108.011 158.454 109.666 150.407C112.748 135.418 115.831 120.432 118.909 105.444C120.564 97.4061 122.277 89.1993 126.389 82.1066C130.498 75.0121 137.508 69.1022 145.588 68.5793C153.668 68.0575 162.161 74.4627 162.104 82.6655C162.081 86.0779 160.695 89.3331 160.212 92.7141C159.727 96.0956 160.496 100.111 163.459 101.71C166.459 103.332 170.148 101.737 173.045 99.8916C183.035 93.5402 190.866 84.2854 198.315 75.0092C205.767 65.7337 213.116 56.1804 222.499 48.9266C231.879 41.6771 243.75 36.8719 255.368 38.6555C266.986 40.4411 277.712 50.1339 278.216 62.0397C278.726 73.9814 269.697 84.069 260.577 91.7113C247.051 103.052 231.908 112.406 215.78 119.383C212.872 120.645 209.72 122.005 208.121 124.774C205.246 129.761 209.182 136.151 214.085 139.03C219.639 142.293 226.252 143.045 232.345 145.11C238.44 147.173 244.625 151.374 245.734 157.792C247.275 166.697 238.599 173.848 230.663 178.053C214.768 186.475 197.462 192.116 179.734 194.662C173.38 195.575 166.771 196.154 161.136 199.297C155.5 202.439 151.101 209.048 152.774 215.312C154.447 221.587 161.437 224.961 167.856 225.119C174.273 225.284 180.518 223.098 186.874 222.123C198.772 220.292 212.838 224.073 217.869 235.109C221.177 242.36 219.736 251.18 215.804 258.153C211.875 265.132 205.754 270.558 199.441 275.426C177.383 292.433 151.238 304.344 123.802 307.798C96.3695 311.254 72.1807 308.635 48.7599 293.942" fill="#00CCCC"/>
</svg>
